ply
format ascii 1.0
comment VCGLIB generated
element vertex 320
property float x
property float y
property float z
element face 560
property list uchar int vertex_indices
end_header
0.19503 0.0830853 0.777059
0.175659 0.0787989 0.779757
0.158389 0.0775953 0.77532
0.12072 0.0753879 0.750549
0.0870209 0.0646781 0.709907
0.0878329 0.0649109 0.696095
0.093621 0.0650518 0.691569
0.124518 0.077096 0.709653
0.164113 0.0785684 0.730766
0.19748 0.083367 0.736852
0.205017 0.0855709 0.754301
0.188897 0.0947131 0.773414
0.17268 0.0902192 0.77987
0.160904 0.0859797 0.77853
0.118006 0.0832697 0.750549
0.084942 0.0727167 0.709907
0.0857651 0.0729067 0.696095
0.0908681 0.0753257 0.691569
0.120922 0.0867142 0.709653
0.162326 0.0873478 0.730766
0.196087 0.0932751 0.736852
0.20281 0.0972709 0.752719
0.234123 0.144141 0.723826
0.234044 0.189547 0.681157
0.235284 0.225974 0.614485
0.235559 0.220486 0.600514
0.233945 0.2127 0.601049
0.232866 0.182277 0.643515
0.232215 0.165029 0.650644
0.232215 0.151232 0.645758
0.24648 0.14471 0.724553
0.246483 0.189112 0.681157
0.24747 0.225762 0.614485
0.247297 0.220281 0.600514
0.248346 0.212449 0.601049
0.245172 0.180984 0.643515
0.245616 0.170671 0.63878
0.244203 0.151124 0.646352
0.224039 0.0414739 0.509496
0.216705 0.0979243 0.508285
0.215218 0.0833945 0.507293
0.22462 0.070321 0.506216
0.239777 0.073465 0.535149
0.254389 0.0708406 0.506216
0.263727 0.0829712 0.507293
0.262494 0.0975247 0.508285
0.224039 0.0414739 0.509496
0.239921 0.117667 0.503599
0.214701 0.13253 0.542069
0.198 0.112095 0.542791
0.199657 0.0850007 0.542791
0.214506 0.0628199 0.543562
0.240111 0.0554777 0.543562
0.265444 0.063709 0.543562
0.281844 0.0846992 0.543562
0.280819 0.111372 0.542791
0.266234 0.134265 0.542791
0.240014 0.140999 0.542069
0.209577 0.143295 0.599063
0.190378 0.118114 0.60138
0.189134 0.0816288 0.595111
0.207948 0.054435 0.596069
0.24025 0.0448668 0.596069
0.271402 0.0549887 0.596069
0.289738 0.0825068 0.595111
0.291147 0.114775 0.595111
0.269947 0.142801 0.599795
0.239333 0.154717 0.599063
0.213538 0.138481 0.684915
0.189835 0.119074 0.666501
0.191645 0.0882762 0.670097
0.210483 0.0646618 0.673112
0.238058 0.0514038 0.66161
0.269666 0.0605178 0.662795
0.286412 0.0890168 0.671072
0.287515 0.119105 0.667354
0.266441 0.138771 0.68558
0.239546 0.146778 0.68428
0.207646 0.143274 0.718961
0.189355 0.116624 0.720689
0.186172 0.0800779 0.717459
0.207611 0.052637 0.717459
0.240102 0.0430127 0.717459
0.272238 0.053765 0.717459
0.292394 0.0810049 0.717459
0.290578 0.115979 0.721588
0.271468 0.142717 0.718961
0.239304 0.149539 0.726869
0.203908 0.146253 0.776769
0.182064 0.115862 0.775695
0.182662 0.0774412 0.77693
0.204861 0.0486345 0.776763
0.240338 0.0397651 0.77894
0.274925 0.0486345 0.776763
0.295518 0.0785682 0.777762
0.296884 0.114554 0.77693
0.274545 0.144198 0.77693
0.239963 0.157968 0.776769
0.204366 0.145762 0.812268
0.182524 0.115698 0.812268
0.182524 0.0785377 0.812268
0.204366 0.0484741 0.812268
0.239708 0.0369909 0.812268
0.27505 0.0484741 0.812267
0.296892 0.0785377 0.812267
0.296892 0.115698 0.812267
0.27505 0.145762 0.812267
0.239708 0.157245 0.812268
0.208239 0.140432 0.852625
0.188789 0.113663 0.852625
0.188789 0.0805734 0.852625
0.208239 0.0538037 0.852625
0.239708 0.0435786 0.852624
0.271178 0.0538037 0.852624
0.290627 0.0805734 0.852624
0.290627 0.113663 0.852624
0.271178 0.140432 0.852624
0.239708 0.150657 0.852624
0.217602 0.130034 0.872528
0.197775 0.0950939 0.872024
0.198013 0.0772922 0.871188
0.217591 0.060366 0.871812
0.240201 0.0509299 0.871188
0.262103 0.0607545 0.871812
0.280213 0.0774111 0.871097
0.280767 0.0952109 0.872204
0.262386 0.130162 0.874969
0.23966 0.138185 0.873661
0.229794 0.10799 0.890244
0.213001 0.0951616 0.885731
0.212874 0.0789956 0.885945
0.229745 0.0699154 0.885768
0.239762 0.0626544 0.885932
0.250135 0.0699387 0.886
0.264411 0.0794454 0.885945
0.264733 0.0948429 0.886725
0.249328 0.107932 0.890279
0.239889 0.114592 0.890477
0.231083 0.100766 0.8855
0.222464 0.0930006 0.887195
0.223741 0.0849545 0.881229
0.231732 0.0745795 0.868766
0.239999 0.0722858 0.865407
0.247725 0.0748587 0.868766
0.254939 0.081528 0.869222
0.252726 0.0931385 0.886367
0.246366 0.100186 0.887413
0.239415 0.10464 0.887763
0.233308 0.0948022 0.867464
0.227995 0.0881835 0.874277
0.228974 0.0807655 0.874044
0.233089 0.0746442 0.873759
0.239777 0.073465 0.873759
0.246419 0.0748769 0.873759
0.250317 0.081138 0.874044
0.251037 0.0885857 0.874277
0.248327 0.0921883 0.874459
0.239673 0.0971946 0.874588
0.235958 0.0817921 0.869205
0.235256 0.0697926 0.873718
0.232724 0.0792003 0.873861
0.234236 0.0745443 0.873861
0.239812 0.072235 0.873861
0.244659 0.0750905 0.873861
0.236584 0.0727751 0.873861
0.246239 0.0807115 0.869205
0.243308 0.0816638 0.869205
0.240073 0.077066 0.857535
0.240275 0.0556963 0.842948
0.284716 0.0836546 0.777872
0.304174 0.0798704 0.77987
0.323109 0.079677 0.774048
0.351269 0.0799917 0.750436
0.392665 0.0673454 0.709907
0.391849 0.067564 0.696095
0.38583 0.0676019 0.691569
0.358784 0.0753426 0.705523
0.31985 0.0818022 0.723805
0.279522 0.0842047 0.738327
0.274301 0.085789 0.753357
0.289861 0.0947131 0.773414
0.305791 0.0913808 0.77987
0.320047 0.0903181 0.77532
0.353987 0.0883561 0.750436
0.394603 0.0754191 0.709907
0.393777 0.0755947 0.696095
0.388404 0.0779223 0.691569
0.361514 0.0862005 0.703287
0.322485 0.0904224 0.723805
0.280637 0.0939915 0.738327
0.277166 0.0969871 0.752927
0.233663 0.0783074 0.338396
0.228963 0.0732179 0.337331
0.229657 0.064269 0.335433
0.232857 0.0602573 0.334602
0.229517 0.0146941 0.39879
0.246277 0.0601401 0.334602
0.250396 0.063907 0.335433
0.250396 0.0730308 0.337331
0.246883 0.0780766 0.338396
0.240279 0.0785384 0.338396
0.229423 0.0880046 0.40346
0.222102 0.0818127 0.402585
0.222911 0.0691308 0.400373
0.228335 0.062826 0.399248
0.239724 0.0570228 0.398402
0.251308 0.062425 0.399248
0.256392 0.0688386 0.400373
0.257422 0.0815045 0.402585
0.250211 0.0878231 0.40346
0.24035 0.0928872 0.404405
0.225601 0.104313 0.468731
0.21669 0.0914204 0.467381
0.214406 0.0776914 0.466273
0.225184 0.0641914 0.464793
0.239701 0.057369 0.464423
0.25701 0.0644383 0.465071
0.264484 0.0772543 0.466273
0.262439 0.0910211 0.467381
0.254444 0.10381 0.468731
0.240127 0.11006 0.469498
0.215812 0.124728 0.50676
0.199067 0.105843 0.505887
0.20167 0.0779762 0.509496
0.214537 0.0565658 0.508285
0.240033 0.058779 0.537344
0.264618 0.0570028 0.508285
0.27715 0.0779762 0.509496
0.279884 0.105138 0.505887
0.263471 0.124312 0.50676
0.240197 0.133478 0.507688
0.212059 0.136039 0.576725
0.195027 0.112161 0.576725
0.193469 0.0819943 0.577553
0.211996 0.05828 0.577553
0.240357 0.0518176 0.572654
0.267846 0.0592549 0.577553
0.285265 0.0827954 0.577553
0.286032 0.11207 0.577553
0.267679 0.135068 0.576725
0.240032 0.144859 0.576725
0.217204 0.133896 0.611191
0.206079 0.114773 0.612705
0.206001 0.0932874 0.615276
0.216994 0.0710704 0.60138
0.239655 0.0639913 0.602233
0.262148 0.0702292 0.602233
0.276427 0.0898869 0.600567
0.272414 0.115057 0.613289
0.261902 0.13358 0.611656
0.239547 0.140123 0.610381
0.218885 -0.0302694 0.335433
0.247182 0.0552133 0.269854
0.263902 0.0508893 0.269854
0.311681 0.0498137 0.206114
0.324217 0.0454989 0.208133
0.335232 0.0411389 0.210247
0.339372 0.0444917 0.212454
0.310272 0.0536174 0.278339
0.276185 0.0610054 0.337331
0.240362 0.0606864 0.271053
0.240357 0.0650542 0.399248
0.202968 0.0616443 0.337331
0.169097 0.0548494 0.278339
0.141611 0.0479437 0.212454
0.145631 0.0444484 0.210247
0.155317 0.0469728 0.208133
0.167927 0.0510682 0.206114
0.215412 0.0513125 0.269854
0.232205 0.055344 0.269854
0.240275 0.0556963 0.269854
0.232919 0.0604265 0.271053
0.24779 0.060167 0.271053
0.208161 -0.0799822 0.272338
0.310302 0.0578104 0.208133
0.325022 0.0522808 0.210247
0.186534 -0.154691 0.212454
0.338912 0.0531697 0.214753
0.310243 0.0606746 0.280052
0.21345 -0.0424767 0.338396
0.208161 -0.0799822 0.272338
0.224624 0.00370404 0.400373
0.203808 0.0677353 0.338396
0.169249 0.061905 0.280052
0.140758 0.054899 0.214753
0.186534 -0.154691 0.212454
0.156224 0.0552272 0.210247
0.169446 0.0590396 0.208133
0.194425 0.106181 0.866868
0.196559 0.113717 0.869504
0.201702 0.116119 0.872904
0.205074 0.11234 0.878696
0.206281 0.105413 0.880563
0.204924 0.0980861 0.878626
0.19934 0.0941815 0.876064
0.195435 0.0980515 0.869775
0.191624 0.105796 0.863964
0.19568 0.116852 0.866616
0.202599 0.119889 0.872156
0.207128 0.11548 0.880827
0.209106 0.105304 0.883751
0.206711 0.0943265 0.881147
0.199982 0.0893038 0.876064
0.193579 0.0942234 0.868341
0.285954 0.105568 0.865254
0.284091 0.113212 0.867919
0.278671 0.115507 0.870778
0.273974 0.112051 0.876376
0.272984 0.105104 0.879228
0.274927 0.0976241 0.876703
0.280098 0.0950668 0.875153
0.284686 0.0973921 0.867921
0.287693 0.106079 0.863101
0.283824 0.116798 0.86584
0.27677 0.11995 0.871238
0.271089 0.115322 0.879337
0.269886 0.10504 0.883206
0.27153 0.0952659 0.880372
0.278763 0.0902846 0.875482
0.285565 0.094506 0.867396
3 21 11 0 
3 11 12 1 
3 12 13 2 
3 13 14 3 
3 14 15 4 
3 15 16 5 
3 16 17 6 
3 17 18 7 
3 18 19 8 
3 19 20 9 
3 20 21 10 
3 0 1 2 
3 21 20 19 
3 37 30 22 
3 30 31 23 
3 31 32 24 
3 32 33 25 
3 33 34 26 
3 34 35 27 
3 35 36 28 
3 36 37 29 
3 22 23 24 
3 37 36 35 
3 180 181 182 
3 179 178 177 
3 178 179 190 
3 177 178 189 
3 176 177 188 
3 175 176 187 
3 174 175 186 
3 173 174 185 
3 172 173 184 
3 171 172 183 
3 38 39 49 
3 39 40 50 
3 40 41 51 
3 41 42 52 
3 42 43 53 
3 43 44 54 
3 44 45 55 
3 45 46 56 
3 46 47 57 
3 47 38 48 
3 48 49 59 
3 49 50 60 
3 50 51 61 
3 51 52 62 
3 52 53 63 
3 53 54 64 
3 54 55 65 
3 55 56 66 
3 56 57 67 
3 57 48 58 
3 58 59 69 
3 59 60 70 
3 60 61 71 
3 61 62 72 
3 62 63 73 
3 63 64 74 
3 64 65 75 
3 65 66 76 
3 66 67 77 
3 67 58 68 
3 68 69 79 
3 69 70 80 
3 70 71 81 
3 71 72 82 
3 72 73 83 
3 73 74 84 
3 74 75 85 
3 75 76 86 
3 76 77 87 
3 77 68 78 
3 78 79 89 
3 79 80 90 
3 80 81 91 
3 81 82 92 
3 82 83 93 
3 83 84 94 
3 84 85 95 
3 85 86 96 
3 86 87 97 
3 87 78 88 
3 88 89 99 
3 89 90 100 
3 90 91 101 
3 91 92 102 
3 92 93 103 
3 93 94 104 
3 94 95 105 
3 95 96 106 
3 96 97 107 
3 97 88 98 
3 98 99 109 
3 99 100 110 
3 100 101 111 
3 101 102 112 
3 102 103 113 
3 103 104 114 
3 104 105 115 
3 105 106 116 
3 106 107 117 
3 107 98 108 
3 108 109 119 
3 109 110 120 
3 110 111 121 
3 111 112 122 
3 112 113 123 
3 113 114 124 
3 114 115 125 
3 115 116 126 
3 116 117 127 
3 117 108 118 
3 118 119 129 
3 119 120 130 
3 120 121 131 
3 121 122 132 
3 122 123 133 
3 123 124 134 
3 124 125 135 
3 125 126 136 
3 126 127 137 
3 127 118 128 
3 128 129 139 
3 129 130 140 
3 130 131 141 
3 131 132 142 
3 132 133 143 
3 133 134 144 
3 134 135 145 
3 135 136 146 
3 136 137 147 
3 137 128 138 
3 138 139 149 
3 139 140 150 
3 140 141 151 
3 141 142 152 
3 142 143 153 
3 143 144 154 
3 144 145 155 
3 145 146 156 
3 146 147 157 
3 147 138 148 
3 148 149 159 
3 149 150 160 
3 150 151 161 
3 151 152 162 
3 152 153 163 
3 153 154 164 
3 154 155 165 
3 155 156 166 
3 156 157 167 
3 157 148 158 
3 158 159 168 
3 159 160 168 
3 160 161 168 
3 161 162 168 
3 162 163 168 
3 163 164 168 
3 164 165 168 
3 165 166 168 
3 166 167 168 
3 167 158 168 
3 179 169 180 
3 169 170 181 
3 170 171 182 
3 251 192 191 
3 251 193 192 
3 251 194 193 
3 251 195 194 
3 251 196 195 
3 251 197 196 
3 251 198 197 
3 251 199 198 
3 251 200 199 
3 251 191 200 
3 191 192 202 
3 192 193 203 
3 193 194 204 
3 194 195 205 
3 195 196 206 
3 196 197 207 
3 197 198 208 
3 198 199 209 
3 199 200 210 
3 200 191 201 
3 201 202 212 
3 202 203 213 
3 203 204 214 
3 204 205 215 
3 205 206 216 
3 206 207 217 
3 207 208 218 
3 208 209 219 
3 209 210 220 
3 210 201 211 
3 211 212 222 
3 212 213 223 
3 213 214 224 
3 214 215 225 
3 215 216 226 
3 216 217 227 
3 217 218 228 
3 218 219 229 
3 219 220 230 
3 220 211 221 
3 221 222 232 
3 222 223 233 
3 223 224 234 
3 224 225 235 
3 225 226 236 
3 226 227 237 
3 227 228 238 
3 228 229 239 
3 229 230 240 
3 230 221 231 
3 231 232 242 
3 232 233 243 
3 233 234 244 
3 234 235 245 
3 235 236 246 
3 236 237 247 
3 237 238 248 
3 238 239 249 
3 239 240 250 
3 240 231 241 
3 260 272 252 
3 272 273 253 
3 273 274 254 
3 274 275 255 
3 275 276 256 
3 276 277 257 
3 277 278 258 
3 278 279 259 
3 281 261 259 
3 281 282 262 
3 282 283 263 
3 283 284 264 
3 284 285 265 
3 285 286 266 
3 286 287 267 
3 287 280 268 
3 280 271 269 
3 271 260 270 
3 261 262 263 
3 260 271 280 
3 281 279 278 
3 270 252 253 
3 295 294 293 
3 303 302 301 
3 304 305 306 
3 312 313 314 
3 21 0 10 
3 11 1 0 
3 12 2 1 
3 13 3 2 
3 14 4 3 
3 15 5 4 
3 16 6 5 
3 17 7 6 
3 18 8 7 
3 19 9 8 
3 20 10 9 
3 0 2 3 
3 0 3 4 
3 0 4 5 
3 0 5 6 
3 0 6 7 
3 0 7 8 
3 0 8 9 
3 0 9 10 
3 21 19 18 
3 21 18 17 
3 21 17 16 
3 21 16 15 
3 21 15 14 
3 21 14 13 
3 21 13 12 
3 21 12 11 
3 37 22 29 
3 30 23 22 
3 31 24 23 
3 32 25 24 
3 33 26 25 
3 34 27 26 
3 35 28 27 
3 36 29 28 
3 22 24 25 
3 22 25 26 
3 22 26 27 
3 22 27 28 
3 22 28 29 
3 37 35 34 
3 37 34 33 
3 37 33 32 
3 37 32 31 
3 37 31 30 
3 180 182 183 
3 180 183 184 
3 180 184 185 
3 180 185 186 
3 180 186 187 
3 180 187 188 
3 180 188 189 
3 180 189 190 
3 179 177 176 
3 179 176 175 
3 179 175 174 
3 179 174 173 
3 179 173 172 
3 179 172 171 
3 179 171 170 
3 179 170 169 
3 178 190 189 
3 177 189 188 
3 176 188 187 
3 175 187 186 
3 174 186 185 
3 173 185 184 
3 172 184 183 
3 171 183 182 
3 38 49 48 
3 39 50 49 
3 40 51 50 
3 41 52 51 
3 42 53 52 
3 43 54 53 
3 44 55 54 
3 45 56 55 
3 46 57 56 
3 47 48 57 
3 48 59 58 
3 49 60 59 
3 50 61 60 
3 51 62 61 
3 52 63 62 
3 53 64 63 
3 54 65 64 
3 55 66 65 
3 56 67 66 
3 57 58 67 
3 58 69 68 
3 59 70 69 
3 60 71 70 
3 61 72 71 
3 62 73 72 
3 63 74 73 
3 64 75 74 
3 65 76 75 
3 66 77 76 
3 67 68 77 
3 68 79 78 
3 69 80 79 
3 70 81 80 
3 71 82 81 
3 72 83 82 
3 73 84 83 
3 74 85 84 
3 75 86 85 
3 76 87 86 
3 77 78 87 
3 78 89 88 
3 79 90 89 
3 80 91 90 
3 81 92 91 
3 82 93 92 
3 83 94 93 
3 84 95 94 
3 85 96 95 
3 86 97 96 
3 87 88 97 
3 88 99 98 
3 89 100 99 
3 90 101 100 
3 91 102 101 
3 92 103 102 
3 93 104 103 
3 94 105 104 
3 95 106 105 
3 96 107 106 
3 97 98 107 
3 98 109 108 
3 99 110 109 
3 100 111 110 
3 101 112 111 
3 102 113 112 
3 103 114 113 
3 104 115 114 
3 105 116 115 
3 106 117 116 
3 107 108 117 
3 108 119 118 
3 109 120 119 
3 110 121 120 
3 111 122 121 
3 112 123 122 
3 113 124 123 
3 114 125 124 
3 115 126 125 
3 116 127 126 
3 117 118 127 
3 118 129 128 
3 119 130 129 
3 120 131 130 
3 121 132 131 
3 122 133 132 
3 123 134 133 
3 124 135 134 
3 125 136 135 
3 126 137 136 
3 127 128 137 
3 128 139 138 
3 129 140 139 
3 130 141 140 
3 131 142 141 
3 132 143 142 
3 133 144 143 
3 134 145 144 
3 135 146 145 
3 136 147 146 
3 137 138 147 
3 138 149 148 
3 139 150 149 
3 140 151 150 
3 141 152 151 
3 142 153 152 
3 143 154 153 
3 144 155 154 
3 145 156 155 
3 146 157 156 
3 147 148 157 
3 148 159 158 
3 149 160 159 
3 150 161 160 
3 151 162 161 
3 152 163 162 
3 153 164 163 
3 154 165 164 
3 155 166 165 
3 156 167 166 
3 157 158 167 
3 179 180 190 
3 169 181 180 
3 170 182 181 
3 191 202 201 
3 192 203 202 
3 193 204 203 
3 194 205 204 
3 195 206 205 
3 196 207 206 
3 197 208 207 
3 198 209 208 
3 199 210 209 
3 200 201 210 
3 201 212 211 
3 202 213 212 
3 203 214 213 
3 204 215 214 
3 205 216 215 
3 206 217 216 
3 207 218 217 
3 208 219 218 
3 209 220 219 
3 210 211 220 
3 211 222 221 
3 212 223 222 
3 213 224 223 
3 214 225 224 
3 215 226 225 
3 216 227 226 
3 217 228 227 
3 218 229 228 
3 219 230 229 
3 220 221 230 
3 221 232 231 
3 222 233 232 
3 223 234 233 
3 224 235 234 
3 225 236 235 
3 226 237 236 
3 227 238 237 
3 228 239 238 
3 229 240 239 
3 230 231 240 
3 231 242 241 
3 232 243 242 
3 233 244 243 
3 234 245 244 
3 235 246 245 
3 236 247 246 
3 237 248 247 
3 238 249 248 
3 239 250 249 
3 240 241 250 
3 260 252 270 
3 272 253 252 
3 273 254 253 
3 274 255 254 
3 275 256 255 
3 276 257 256 
3 277 258 257 
3 278 259 258 
3 281 259 279 
3 281 262 261 
3 282 263 262 
3 283 264 263 
3 284 265 264 
3 285 266 265 
3 286 267 266 
3 287 268 267 
3 280 269 268 
3 271 270 269 
3 261 263 264 
3 261 264 265 
3 261 265 266 
3 261 266 267 
3 261 267 268 
3 261 268 269 
3 261 269 270 
3 260 280 287 
3 260 287 286 
3 260 286 285 
3 260 285 284 
3 260 284 283 
3 260 283 282 
3 260 282 281 
3 281 278 277 
3 281 277 276 
3 281 276 275 
3 281 275 274 
3 281 274 273 
3 281 273 272 
3 281 272 260 
3 270 253 254 
3 270 254 255 
3 270 255 256 
3 270 256 257 
3 270 257 258 
3 270 258 259 
3 270 259 261 
3 295 293 292 
3 295 292 291 
3 295 291 290 
3 295 290 289 
3 295 289 288 
3 303 301 300 
3 303 300 299 
3 303 299 298 
3 303 298 297 
3 303 297 296 
3 304 306 307 
3 304 307 308 
3 304 308 309 
3 304 309 310 
3 304 310 311 
3 312 314 315 
3 312 315 316 
3 312 316 317 
3 312 317 318 
3 312 318 319 
